<mxfile host="app.diagrams.net" agent="Mozilla/5.0 (Windows NT 10.0; Win64; x64) AppleWebKit/537.36 (KHTML, like Gecko) Chrome/137.0.0.0 Safari/537.36" version="27.2.0">
  <diagram name="Page-1" id="2YBvvXClWsGukQMizWep">
    <mxGraphModel dx="1281" dy="658" grid="1" gridSize="10" guides="1" tooltips="1" connect="1" arrows="1" fold="1" page="1" pageScale="1" pageWidth="850" pageHeight="1100" math="0" shadow="0">
      <root>
        <mxCell id="0" />
        <mxCell id="1" parent="0" />
        <mxCell id="aM9ryv3xv72pqoxQDRHE-1" value="UserRequest" style="shape=umlLifeline;perimeter=lifelinePerimeter;whiteSpace=wrap;html=1;container=0;dropTarget=0;collapsible=0;recursiveResize=0;outlineConnect=0;portConstraint=eastwest;newEdgeStyle={&quot;edgeStyle&quot;:&quot;elbowEdgeStyle&quot;,&quot;elbow&quot;:&quot;vertical&quot;,&quot;curved&quot;:0,&quot;rounded&quot;:0};" parent="1" vertex="1">
          <mxGeometry x="40" y="40" width="100" height="550" as="geometry" />
        </mxCell>
        <mxCell id="aM9ryv3xv72pqoxQDRHE-2" value="" style="html=1;points=[];perimeter=orthogonalPerimeter;outlineConnect=0;targetShapes=umlLifeline;portConstraint=eastwest;newEdgeStyle={&quot;edgeStyle&quot;:&quot;elbowEdgeStyle&quot;,&quot;elbow&quot;:&quot;vertical&quot;,&quot;curved&quot;:0,&quot;rounded&quot;:0};" parent="aM9ryv3xv72pqoxQDRHE-1" vertex="1">
          <mxGeometry x="45" y="70" width="10" height="380" as="geometry" />
        </mxCell>
        <mxCell id="aM9ryv3xv72pqoxQDRHE-3" value="request" style="html=1;verticalAlign=bottom;startArrow=oval;endArrow=block;startSize=8;edgeStyle=elbowEdgeStyle;elbow=vertical;curved=0;rounded=0;" parent="aM9ryv3xv72pqoxQDRHE-1" target="aM9ryv3xv72pqoxQDRHE-2" edge="1">
          <mxGeometry relative="1" as="geometry">
            <mxPoint x="-15" y="70" as="sourcePoint" />
          </mxGeometry>
        </mxCell>
        <mxCell id="aM9ryv3xv72pqoxQDRHE-5" value="AuthTokenFilter" style="shape=umlLifeline;perimeter=lifelinePerimeter;whiteSpace=wrap;html=1;container=0;dropTarget=0;collapsible=0;recursiveResize=0;outlineConnect=0;portConstraint=eastwest;newEdgeStyle={&quot;edgeStyle&quot;:&quot;elbowEdgeStyle&quot;,&quot;elbow&quot;:&quot;vertical&quot;,&quot;curved&quot;:0,&quot;rounded&quot;:0};" parent="1" vertex="1">
          <mxGeometry x="220" y="40" width="100" height="540" as="geometry" />
        </mxCell>
        <mxCell id="aM9ryv3xv72pqoxQDRHE-6" value="" style="html=1;points=[];perimeter=orthogonalPerimeter;outlineConnect=0;targetShapes=umlLifeline;portConstraint=eastwest;newEdgeStyle={&quot;edgeStyle&quot;:&quot;elbowEdgeStyle&quot;,&quot;elbow&quot;:&quot;vertical&quot;,&quot;curved&quot;:0,&quot;rounded&quot;:0};" parent="aM9ryv3xv72pqoxQDRHE-5" vertex="1">
          <mxGeometry x="45" y="80" width="10" height="390" as="geometry" />
        </mxCell>
        <mxCell id="aM9ryv3xv72pqoxQDRHE-7" value="doFilterInternal()" style="html=1;verticalAlign=bottom;endArrow=block;edgeStyle=elbowEdgeStyle;elbow=vertical;curved=0;rounded=0;" parent="1" source="aM9ryv3xv72pqoxQDRHE-2" target="aM9ryv3xv72pqoxQDRHE-6" edge="1">
          <mxGeometry relative="1" as="geometry">
            <mxPoint x="195" y="130" as="sourcePoint" />
            <Array as="points">
              <mxPoint x="180" y="120" />
            </Array>
          </mxGeometry>
        </mxCell>
        <mxCell id="6xxu0KZQmQwQ1ctFK0O5-1" value="UserController" style="shape=umlLifeline;perimeter=lifelinePerimeter;whiteSpace=wrap;html=1;container=0;dropTarget=0;collapsible=0;recursiveResize=0;outlineConnect=0;portConstraint=eastwest;newEdgeStyle={&quot;edgeStyle&quot;:&quot;elbowEdgeStyle&quot;,&quot;elbow&quot;:&quot;vertical&quot;,&quot;curved&quot;:0,&quot;rounded&quot;:0};" vertex="1" parent="1">
          <mxGeometry x="390" y="40" width="100" height="550" as="geometry" />
        </mxCell>
        <mxCell id="6xxu0KZQmQwQ1ctFK0O5-2" value="" style="html=1;points=[];perimeter=orthogonalPerimeter;outlineConnect=0;targetShapes=umlLifeline;portConstraint=eastwest;newEdgeStyle={&quot;edgeStyle&quot;:&quot;elbowEdgeStyle&quot;,&quot;elbow&quot;:&quot;vertical&quot;,&quot;curved&quot;:0,&quot;rounded&quot;:0};" vertex="1" parent="6xxu0KZQmQwQ1ctFK0O5-1">
          <mxGeometry x="45" y="70" width="10" height="400" as="geometry" />
        </mxCell>
        <mxCell id="6xxu0KZQmQwQ1ctFK0O5-4" value="" style="html=1;points=[];perimeter=orthogonalPerimeter;outlineConnect=0;targetShapes=umlLifeline;portConstraint=eastwest;newEdgeStyle={&quot;edgeStyle&quot;:&quot;elbowEdgeStyle&quot;,&quot;elbow&quot;:&quot;vertical&quot;,&quot;curved&quot;:0,&quot;rounded&quot;:0};" vertex="1" parent="6xxu0KZQmQwQ1ctFK0O5-1">
          <mxGeometry x="50" y="79" width="10" height="41" as="geometry" />
        </mxCell>
        <mxCell id="6xxu0KZQmQwQ1ctFK0O5-25" value="" style="html=1;points=[];perimeter=orthogonalPerimeter;outlineConnect=0;targetShapes=umlLifeline;portConstraint=eastwest;newEdgeStyle={&quot;edgeStyle&quot;:&quot;elbowEdgeStyle&quot;,&quot;elbow&quot;:&quot;vertical&quot;,&quot;curved&quot;:0,&quot;rounded&quot;:0};" vertex="1" parent="6xxu0KZQmQwQ1ctFK0O5-1">
          <mxGeometry x="50" y="160" width="10" height="280" as="geometry" />
        </mxCell>
        <mxCell id="6xxu0KZQmQwQ1ctFK0O5-5" value="UserServiceImpl" style="shape=umlLifeline;perimeter=lifelinePerimeter;whiteSpace=wrap;html=1;container=0;dropTarget=0;collapsible=0;recursiveResize=0;outlineConnect=0;portConstraint=eastwest;newEdgeStyle={&quot;edgeStyle&quot;:&quot;elbowEdgeStyle&quot;,&quot;elbow&quot;:&quot;vertical&quot;,&quot;curved&quot;:0,&quot;rounded&quot;:0};" vertex="1" parent="1">
          <mxGeometry x="570" y="40" width="100" height="480" as="geometry" />
        </mxCell>
        <mxCell id="6xxu0KZQmQwQ1ctFK0O5-6" value="" style="html=1;points=[];perimeter=orthogonalPerimeter;outlineConnect=0;targetShapes=umlLifeline;portConstraint=eastwest;newEdgeStyle={&quot;edgeStyle&quot;:&quot;elbowEdgeStyle&quot;,&quot;elbow&quot;:&quot;vertical&quot;,&quot;curved&quot;:0,&quot;rounded&quot;:0};" vertex="1" parent="6xxu0KZQmQwQ1ctFK0O5-5">
          <mxGeometry x="45" y="80" width="10" height="370" as="geometry" />
        </mxCell>
        <mxCell id="6xxu0KZQmQwQ1ctFK0O5-7" value="findByEmail()" style="html=1;verticalAlign=bottom;endArrow=block;edgeStyle=elbowEdgeStyle;elbow=horizontal;curved=0;rounded=0;" edge="1" parent="1" source="6xxu0KZQmQwQ1ctFK0O5-2" target="6xxu0KZQmQwQ1ctFK0O5-6">
          <mxGeometry relative="1" as="geometry">
            <mxPoint x="545" y="130" as="sourcePoint" />
            <Array as="points">
              <mxPoint x="530" y="120" />
            </Array>
          </mxGeometry>
        </mxCell>
        <mxCell id="6xxu0KZQmQwQ1ctFK0O5-11" value="registerUser()" style="html=1;verticalAlign=bottom;endArrow=block;edgeStyle=elbowEdgeStyle;elbow=vertical;curved=0;rounded=0;" edge="1" parent="1">
          <mxGeometry relative="1" as="geometry">
            <mxPoint x="265" y="120" as="sourcePoint" />
            <Array as="points">
              <mxPoint x="350" y="120" />
            </Array>
            <mxPoint x="435" y="120" as="targetPoint" />
          </mxGeometry>
        </mxCell>
        <mxCell id="6xxu0KZQmQwQ1ctFK0O5-12" value="return User" style="html=1;verticalAlign=bottom;endArrow=open;dashed=1;endSize=8;edgeStyle=elbowEdgeStyle;elbow=vertical;curved=0;rounded=0;" edge="1" parent="1">
          <mxGeometry relative="1" as="geometry">
            <mxPoint x="450" y="160" as="targetPoint" />
            <Array as="points">
              <mxPoint x="545" y="160" />
            </Array>
            <mxPoint x="620" y="160" as="sourcePoint" />
          </mxGeometry>
        </mxCell>
        <mxCell id="6xxu0KZQmQwQ1ctFK0O5-13" value="signUp()" style="html=1;verticalAlign=bottom;endArrow=block;edgeStyle=elbowEdgeStyle;elbow=horizontal;curved=0;rounded=0;" edge="1" parent="1">
          <mxGeometry relative="1" as="geometry">
            <mxPoint x="445" y="200" as="sourcePoint" />
            <Array as="points">
              <mxPoint x="530" y="200" />
            </Array>
            <mxPoint x="615" y="200" as="targetPoint" />
          </mxGeometry>
        </mxCell>
        <mxCell id="6xxu0KZQmQwQ1ctFK0O5-14" value="UserMapper" style="shape=umlLifeline;perimeter=lifelinePerimeter;whiteSpace=wrap;html=1;container=0;dropTarget=0;collapsible=0;recursiveResize=0;outlineConnect=0;portConstraint=eastwest;newEdgeStyle={&quot;edgeStyle&quot;:&quot;elbowEdgeStyle&quot;,&quot;elbow&quot;:&quot;vertical&quot;,&quot;curved&quot;:0,&quot;rounded&quot;:0};" vertex="1" parent="1">
          <mxGeometry x="751" y="40" width="100" height="600" as="geometry" />
        </mxCell>
        <mxCell id="6xxu0KZQmQwQ1ctFK0O5-15" value="" style="html=1;points=[];perimeter=orthogonalPerimeter;outlineConnect=0;targetShapes=umlLifeline;portConstraint=eastwest;newEdgeStyle={&quot;edgeStyle&quot;:&quot;elbowEdgeStyle&quot;,&quot;elbow&quot;:&quot;vertical&quot;,&quot;curved&quot;:0,&quot;rounded&quot;:0};" vertex="1" parent="6xxu0KZQmQwQ1ctFK0O5-14">
          <mxGeometry x="45" y="160" width="10" height="300" as="geometry" />
        </mxCell>
        <mxCell id="6xxu0KZQmQwQ1ctFK0O5-16" value="convert()" style="html=1;verticalAlign=bottom;endArrow=block;edgeStyle=elbowEdgeStyle;elbow=horizontal;curved=0;rounded=0;" edge="1" parent="1">
          <mxGeometry relative="1" as="geometry">
            <mxPoint x="624" y="210" as="sourcePoint" />
            <Array as="points">
              <mxPoint x="709" y="210" />
            </Array>
            <mxPoint x="794" y="210" as="targetPoint" />
          </mxGeometry>
        </mxCell>
        <mxCell id="6xxu0KZQmQwQ1ctFK0O5-17" value="return User" style="html=1;verticalAlign=bottom;endArrow=open;dashed=1;endSize=8;edgeStyle=elbowEdgeStyle;elbow=vertical;curved=0;rounded=0;" edge="1" parent="1">
          <mxGeometry relative="1" as="geometry">
            <mxPoint x="624" y="233" as="targetPoint" />
            <Array as="points">
              <mxPoint x="719" y="233" />
            </Array>
            <mxPoint x="794" y="233" as="sourcePoint" />
          </mxGeometry>
        </mxCell>
        <mxCell id="6xxu0KZQmQwQ1ctFK0O5-18" value="save()" style="html=1;verticalAlign=bottom;endArrow=block;edgeStyle=elbowEdgeStyle;elbow=horizontal;curved=0;rounded=0;" edge="1" parent="1" target="6xxu0KZQmQwQ1ctFK0O5-20">
          <mxGeometry x="0.4168" relative="1" as="geometry">
            <mxPoint x="624" y="260" as="sourcePoint" />
            <Array as="points">
              <mxPoint x="709" y="260" />
            </Array>
            <mxPoint x="990" y="260" as="targetPoint" />
            <mxPoint as="offset" />
          </mxGeometry>
        </mxCell>
        <mxCell id="6xxu0KZQmQwQ1ctFK0O5-19" value="UserRepository" style="shape=umlLifeline;perimeter=lifelinePerimeter;whiteSpace=wrap;html=1;container=0;dropTarget=0;collapsible=0;recursiveResize=0;outlineConnect=0;portConstraint=eastwest;newEdgeStyle={&quot;edgeStyle&quot;:&quot;elbowEdgeStyle&quot;,&quot;elbow&quot;:&quot;vertical&quot;,&quot;curved&quot;:0,&quot;rounded&quot;:0};" vertex="1" parent="1">
          <mxGeometry x="950" y="40" width="100" height="590" as="geometry" />
        </mxCell>
        <mxCell id="6xxu0KZQmQwQ1ctFK0O5-20" value="" style="html=1;points=[];perimeter=orthogonalPerimeter;outlineConnect=0;targetShapes=umlLifeline;portConstraint=eastwest;newEdgeStyle={&quot;edgeStyle&quot;:&quot;elbowEdgeStyle&quot;,&quot;elbow&quot;:&quot;vertical&quot;,&quot;curved&quot;:0,&quot;rounded&quot;:0};" vertex="1" parent="6xxu0KZQmQwQ1ctFK0O5-19">
          <mxGeometry x="45" y="220" width="10" height="30" as="geometry" />
        </mxCell>
        <mxCell id="6xxu0KZQmQwQ1ctFK0O5-21" value="return User" style="html=1;verticalAlign=bottom;endArrow=open;dashed=1;endSize=8;edgeStyle=elbowEdgeStyle;elbow=vertical;curved=0;rounded=0;" edge="1" parent="1">
          <mxGeometry x="0.3207" relative="1" as="geometry">
            <mxPoint x="625" y="282" as="targetPoint" />
            <Array as="points">
              <mxPoint x="918" y="282" />
            </Array>
            <mxPoint x="993" y="282" as="sourcePoint" />
            <mxPoint as="offset" />
          </mxGeometry>
        </mxCell>
        <mxCell id="6xxu0KZQmQwQ1ctFK0O5-22" value="convertFromEntity()" style="html=1;verticalAlign=bottom;endArrow=block;edgeStyle=elbowEdgeStyle;elbow=horizontal;curved=0;rounded=0;" edge="1" parent="1">
          <mxGeometry relative="1" as="geometry">
            <mxPoint x="625" y="305" as="sourcePoint" />
            <Array as="points">
              <mxPoint x="710" y="305" />
            </Array>
            <mxPoint x="795" y="305" as="targetPoint" />
          </mxGeometry>
        </mxCell>
        <mxCell id="6xxu0KZQmQwQ1ctFK0O5-23" value="return UserSignUpResponse" style="html=1;verticalAlign=bottom;endArrow=open;dashed=1;endSize=8;edgeStyle=elbowEdgeStyle;elbow=horizontal;curved=0;rounded=0;" edge="1" parent="1">
          <mxGeometry relative="1" as="geometry">
            <mxPoint x="627" y="334" as="targetPoint" />
            <Array as="points">
              <mxPoint x="722" y="334" />
            </Array>
            <mxPoint x="797" y="334" as="sourcePoint" />
          </mxGeometry>
        </mxCell>
        <mxCell id="6xxu0KZQmQwQ1ctFK0O5-24" value="return UserSignUpResponse" style="html=1;verticalAlign=bottom;endArrow=open;dashed=1;endSize=8;edgeStyle=elbowEdgeStyle;elbow=horizontal;curved=0;rounded=0;" edge="1" parent="1">
          <mxGeometry relative="1" as="geometry">
            <mxPoint x="446" y="480" as="targetPoint" />
            <Array as="points">
              <mxPoint x="541" y="480" />
            </Array>
            <mxPoint x="616" y="480" as="sourcePoint" />
          </mxGeometry>
        </mxCell>
        <mxCell id="6xxu0KZQmQwQ1ctFK0O5-26" value="return ResponseEntity.ok(UserSignUpResponse)" style="html=1;verticalAlign=bottom;endArrow=open;dashed=1;endSize=8;edgeStyle=elbowEdgeStyle;elbow=horizontal;curved=0;rounded=0;" edge="1" parent="1">
          <mxGeometry relative="1" as="geometry">
            <mxPoint x="89.5" y="490" as="targetPoint" />
            <Array as="points">
              <mxPoint x="357" y="490" />
            </Array>
            <mxPoint x="432" y="490" as="sourcePoint" />
          </mxGeometry>
        </mxCell>
        <mxCell id="6xxu0KZQmQwQ1ctFK0O5-27" value="authenticate()" style="html=1;verticalAlign=bottom;endArrow=block;edgeStyle=elbowEdgeStyle;elbow=vertical;curved=0;rounded=0;" edge="1" parent="1">
          <mxGeometry relative="1" as="geometry">
            <mxPoint x="626" y="362" as="sourcePoint" />
            <Array as="points">
              <mxPoint x="702" y="362" />
            </Array>
            <mxPoint x="1208.5" y="362" as="targetPoint" />
          </mxGeometry>
        </mxCell>
        <mxCell id="6xxu0KZQmQwQ1ctFK0O5-28" value="AuthenticationManager" style="shape=umlLifeline;perimeter=lifelinePerimeter;whiteSpace=wrap;html=1;container=0;dropTarget=0;collapsible=0;recursiveResize=0;outlineConnect=0;portConstraint=eastwest;newEdgeStyle={&quot;edgeStyle&quot;:&quot;elbowEdgeStyle&quot;,&quot;elbow&quot;:&quot;vertical&quot;,&quot;curved&quot;:0,&quot;rounded&quot;:0};" vertex="1" parent="1">
          <mxGeometry x="1148" y="40" width="136" height="510" as="geometry" />
        </mxCell>
        <mxCell id="6xxu0KZQmQwQ1ctFK0O5-29" value="" style="html=1;points=[];perimeter=orthogonalPerimeter;outlineConnect=0;targetShapes=umlLifeline;portConstraint=eastwest;newEdgeStyle={&quot;edgeStyle&quot;:&quot;elbowEdgeStyle&quot;,&quot;elbow&quot;:&quot;vertical&quot;,&quot;curved&quot;:0,&quot;rounded&quot;:0};" vertex="1" parent="6xxu0KZQmQwQ1ctFK0O5-28">
          <mxGeometry x="62" y="320" width="10" height="100" as="geometry" />
        </mxCell>
        <mxCell id="6xxu0KZQmQwQ1ctFK0O5-30" value="return authentication" style="html=1;verticalAlign=bottom;endArrow=open;dashed=1;endSize=8;edgeStyle=elbowEdgeStyle;elbow=horizontal;curved=0;rounded=0;" edge="1" parent="1">
          <mxGeometry relative="1" as="geometry">
            <mxPoint x="626" y="410" as="targetPoint" />
            <Array as="points">
              <mxPoint x="1131" y="410" />
            </Array>
            <mxPoint x="1206" y="410" as="sourcePoint" />
          </mxGeometry>
        </mxCell>
        <mxCell id="6xxu0KZQmQwQ1ctFK0O5-31" value="JwtUtils" style="shape=umlLifeline;perimeter=lifelinePerimeter;whiteSpace=wrap;html=1;container=0;dropTarget=0;collapsible=0;recursiveResize=0;outlineConnect=0;portConstraint=eastwest;newEdgeStyle={&quot;edgeStyle&quot;:&quot;elbowEdgeStyle&quot;,&quot;elbow&quot;:&quot;vertical&quot;,&quot;curved&quot;:0,&quot;rounded&quot;:0};" vertex="1" parent="1">
          <mxGeometry x="1320" y="40" width="136" height="530" as="geometry" />
        </mxCell>
        <mxCell id="6xxu0KZQmQwQ1ctFK0O5-32" value="" style="html=1;points=[];perimeter=orthogonalPerimeter;outlineConnect=0;targetShapes=umlLifeline;portConstraint=eastwest;newEdgeStyle={&quot;edgeStyle&quot;:&quot;elbowEdgeStyle&quot;,&quot;elbow&quot;:&quot;vertical&quot;,&quot;curved&quot;:0,&quot;rounded&quot;:0};" vertex="1" parent="6xxu0KZQmQwQ1ctFK0O5-31">
          <mxGeometry x="62" y="400" width="10" height="30" as="geometry" />
        </mxCell>
        <mxCell id="6xxu0KZQmQwQ1ctFK0O5-33" value="generateToken()" style="html=1;verticalAlign=bottom;endArrow=block;edgeStyle=elbowEdgeStyle;elbow=vertical;curved=0;rounded=0;" edge="1" parent="1">
          <mxGeometry relative="1" as="geometry">
            <mxPoint x="626.5" y="440" as="sourcePoint" />
            <Array as="points">
              <mxPoint x="763" y="440" />
            </Array>
            <mxPoint x="1379.5" y="440" as="targetPoint" />
          </mxGeometry>
        </mxCell>
        <mxCell id="6xxu0KZQmQwQ1ctFK0O5-34" value="return token" style="html=1;verticalAlign=bottom;endArrow=open;dashed=1;endSize=8;edgeStyle=elbowEdgeStyle;elbow=horizontal;curved=0;rounded=0;" edge="1" parent="1">
          <mxGeometry relative="1" as="geometry">
            <mxPoint x="626" y="460" as="targetPoint" />
            <Array as="points">
              <mxPoint x="1301" y="460" />
            </Array>
            <mxPoint x="1376" y="460" as="sourcePoint" />
          </mxGeometry>
        </mxCell>
        <mxCell id="6xxu0KZQmQwQ1ctFK0O5-35" value="CustomUserDetailsService" style="shape=umlLifeline;perimeter=lifelinePerimeter;whiteSpace=wrap;html=1;container=0;dropTarget=0;collapsible=0;recursiveResize=0;outlineConnect=0;portConstraint=eastwest;newEdgeStyle={&quot;edgeStyle&quot;:&quot;elbowEdgeStyle&quot;,&quot;elbow&quot;:&quot;vertical&quot;,&quot;curved&quot;:0,&quot;rounded&quot;:0};" vertex="1" parent="1">
          <mxGeometry x="1500" y="40" width="160" height="530" as="geometry" />
        </mxCell>
        <mxCell id="6xxu0KZQmQwQ1ctFK0O5-36" value="" style="html=1;points=[];perimeter=orthogonalPerimeter;outlineConnect=0;targetShapes=umlLifeline;portConstraint=eastwest;newEdgeStyle={&quot;edgeStyle&quot;:&quot;elbowEdgeStyle&quot;,&quot;elbow&quot;:&quot;vertical&quot;,&quot;curved&quot;:0,&quot;rounded&quot;:0};" vertex="1" parent="6xxu0KZQmQwQ1ctFK0O5-35">
          <mxGeometry x="75" y="330" width="10" height="40" as="geometry" />
        </mxCell>
        <mxCell id="6xxu0KZQmQwQ1ctFK0O5-37" value="loadUserByUsername()" style="html=1;verticalAlign=bottom;endArrow=block;edgeStyle=elbowEdgeStyle;elbow=vertical;curved=0;rounded=0;" edge="1" parent="1">
          <mxGeometry x="0.4286" relative="1" as="geometry">
            <mxPoint x="1220" y="380" as="sourcePoint" />
            <Array as="points">
              <mxPoint x="1296" y="380" />
            </Array>
            <mxPoint x="1570" y="380" as="targetPoint" />
            <mxPoint as="offset" />
          </mxGeometry>
        </mxCell>
        <mxCell id="6xxu0KZQmQwQ1ctFK0O5-38" value="return UserDetails" style="html=1;verticalAlign=bottom;endArrow=open;dashed=1;endSize=8;edgeStyle=elbowEdgeStyle;elbow=horizontal;curved=0;rounded=0;" edge="1" parent="1">
          <mxGeometry x="0.388" relative="1" as="geometry">
            <mxPoint x="1220" y="407" as="targetPoint" />
            <Array as="points">
              <mxPoint x="1435" y="407" />
            </Array>
            <mxPoint x="1579.5" y="407" as="sourcePoint" />
            <mxPoint as="offset" />
          </mxGeometry>
        </mxCell>
        <mxCell id="6xxu0KZQmQwQ1ctFK0O5-39" value="H2" style="shape=umlLifeline;perimeter=lifelinePerimeter;whiteSpace=wrap;html=1;container=0;dropTarget=0;collapsible=0;recursiveResize=0;outlineConnect=0;portConstraint=eastwest;newEdgeStyle={&quot;edgeStyle&quot;:&quot;elbowEdgeStyle&quot;,&quot;elbow&quot;:&quot;vertical&quot;,&quot;curved&quot;:0,&quot;rounded&quot;:0};" vertex="1" parent="1">
          <mxGeometry x="1700" y="40" width="100" height="590" as="geometry" />
        </mxCell>
        <mxCell id="6xxu0KZQmQwQ1ctFK0O5-40" value="" style="html=1;points=[];perimeter=orthogonalPerimeter;outlineConnect=0;targetShapes=umlLifeline;portConstraint=eastwest;newEdgeStyle={&quot;edgeStyle&quot;:&quot;elbowEdgeStyle&quot;,&quot;elbow&quot;:&quot;vertical&quot;,&quot;curved&quot;:0,&quot;rounded&quot;:0};" vertex="1" parent="6xxu0KZQmQwQ1ctFK0O5-39">
          <mxGeometry x="45" y="220" width="10" height="170" as="geometry" />
        </mxCell>
        <mxCell id="6xxu0KZQmQwQ1ctFK0O5-41" value="save()" style="html=1;verticalAlign=bottom;endArrow=block;edgeStyle=elbowEdgeStyle;elbow=horizontal;curved=0;rounded=0;" edge="1" parent="1" target="6xxu0KZQmQwQ1ctFK0O5-39">
          <mxGeometry x="-0.0463" relative="1" as="geometry">
            <mxPoint x="1005" y="265" as="sourcePoint" />
            <Array as="points">
              <mxPoint x="1090" y="265" />
            </Array>
            <mxPoint x="1376" y="265" as="targetPoint" />
            <mxPoint as="offset" />
          </mxGeometry>
        </mxCell>
        <mxCell id="6xxu0KZQmQwQ1ctFK0O5-42" value="return User" style="html=1;verticalAlign=bottom;endArrow=open;dashed=1;endSize=8;edgeStyle=elbowEdgeStyle;elbow=vertical;curved=0;rounded=0;" edge="1" parent="1">
          <mxGeometry x="0.2539" relative="1" as="geometry">
            <mxPoint x="1004.5" y="281.5" as="targetPoint" />
            <Array as="points">
              <mxPoint x="1668" y="281.5" />
            </Array>
            <mxPoint x="1743" y="281.5" as="sourcePoint" />
            <mxPoint as="offset" />
          </mxGeometry>
        </mxCell>
        <mxCell id="6xxu0KZQmQwQ1ctFK0O5-43" value="findByEmail()" style="html=1;verticalAlign=bottom;endArrow=block;edgeStyle=elbowEdgeStyle;elbow=vertical;curved=0;rounded=0;" edge="1" parent="1">
          <mxGeometry x="-0.1043" relative="1" as="geometry">
            <mxPoint x="1587" y="380" as="sourcePoint" />
            <Array as="points">
              <mxPoint x="1663" y="380" />
            </Array>
            <mxPoint x="1750" y="380" as="targetPoint" />
            <mxPoint as="offset" />
          </mxGeometry>
        </mxCell>
        <mxCell id="6xxu0KZQmQwQ1ctFK0O5-44" value="return User" style="html=1;verticalAlign=bottom;endArrow=open;dashed=1;endSize=8;edgeStyle=elbowEdgeStyle;elbow=horizontal;curved=0;rounded=0;" edge="1" parent="1">
          <mxGeometry x="0.388" relative="1" as="geometry">
            <mxPoint x="1585.5" y="400" as="targetPoint" />
            <Array as="points">
              <mxPoint x="1746" y="555" />
            </Array>
            <mxPoint x="1740" y="400" as="sourcePoint" />
            <mxPoint as="offset" />
          </mxGeometry>
        </mxCell>
      </root>
    </mxGraphModel>
  </diagram>
</mxfile>
